<svg xmlns="http://www.w3.org/2000/svg" viewBox="0 0 512 512"><path d="M0 256.002v256.002l256.25-.252 256.25-.252.252-255.75L513.004 0H0v256.002m.492.498c0 140.8.116 198.251.258 127.67.142-70.582.142-185.782 0-256C.608 57.951.492 115.7.492 256.5M242.776 27.472c8.479 7.394 10.186 17.954 4.71 29.146l-2.803 5.73-1.162-4.575c-.639-2.517-2.011-5.858-3.049-7.424l-1.887-2.849-.757 4.347c-.416 2.391-1.724 6.891-2.905 10-1.182 3.109-2.196 8.015-2.254 10.903-.057 2.888-.378 5.25-.712 5.25-1.308 0-4.975-4.753-6.052-7.844-1.369-3.925-3.298-2.754-7.625 4.629-14.558 24.842-2.614 56.691 23.573 62.855 7.832 1.843 8.361 1.639 2.995-1.156-5.766-3.003-10.281-8.361-12.868-15.272-3.007-8.03-2.207-23.242.915-17.408 1.149 2.147 8.612 8.196 10.112 8.196.389 0 .708-2.362.709-5.25.002-3.967.911-7.191 3.722-13.191 3.206-6.843 3.675-8.745 3.391-13.752-.387-6.833-.388-6.833 4.93-2.281 8.14 6.967 11.159 18.408 7.718 29.246-1.574 4.957 8.461-1.549 12.565-8.148l1.789-2.875 2.274 4.375c6.272 12.071 1.021 27.746-12.083 36.072l-4.479 2.845 3.479-.623c23.901-4.286 37.999-22.726 35.464-46.389C301.155 79.6 290 58.176 290 68.05c0 2.697-2.256 6.966-4.987 9.438l-2.192 1.984.839-3.986c.462-2.192.793-7.029.736-10.749-.284-18.356-19.967-38.448-39.55-40.371l-6.346-.623 4.276 3.729m-59.013 36.093c-7.751 4.206-7.592 17.886.254 21.944 2.863 1.48 2.983 1.813 2.979 8.267l-.005 6.724-7.245 3.74c-25.258 13.035-47.815 34.399-64.158 60.762L108.771 176l-5.635-4.899c-9.357-8.134-10.334-9.48-10.534-14.516-.174-4.371.085-4.819 6.358-11.015l6.54-6.459 4.165 1.128c13.266 3.594 26.449-12.494 19.862-24.239-2.294-4.089 5.98-12 12.551-12 9.729 0 15.932-10.278 11.442-18.961-7.709-14.908-29.939-4.535-23.515 10.972 1.873 4.522-5.224 12.122-9.501 10.173-15.332-6.986-31.406 10.333-23.42 25.234l2.084 3.889-5.834 5.303c-3.756 3.414-6.368 5.08-7.334 4.677-12.633-5.279-24.101 6.268-18.322 18.447 3.106 6.545 10.919 8.523 19.322 4.893.991-.428 4.456 1.906 10.209 6.875l8.709 7.523-2.033 4.738c-4.564 10.633-9.859 33.939-9.879 43.487C94 233.793 94.302 234 98 234c3.991 0 4-.008 4-3.949 0-6.032 3.658-23.665 6.899-33.252 13.333-39.444 48.105-75.803 87.851-91.86l8.25-3.332v-3.804c0-2.092-.113-3.803-.25-3.802-.137 0-2.613.898-5.5 1.995L194 97.992v-5.496c0-3.023.415-5.496.923-5.496 2.13 0 7.121-5.418 8.129-8.824 3.218-10.874-9.05-20.166-19.289-14.611m130.716 1.756c-6.438 6.438-5.132 15.963 2.768 20.179 3.599 1.921 3.748 2.208 3.75 7.25.002 2.888-.185 5.25-.414 5.25-.229 0-2.517-.9-5.083-2-5.908-2.533-5.5-2.685-5.5 2.052 0 3.663.309 4.16 3.213 5.172 15.164 5.286 38.954 19.892 53.119 32.613 7.131 6.404 9.912 8.238 14.438 9.526 7.249 2.062 7.274 1.942 1.021-4.911-12.31-13.493-30.97-27.728-47.409-36.167l-7.373-3.785-.005-6.534c-.004-6.205.148-6.624 3.001-8.31 7.954-4.698 7.971-18.032.028-22.139-5.321-2.752-11.743-2.007-15.554 1.804m-127.847 6.794c-3.26 4.655 3.12 10.229 7.338 6.412 2.431-2.2 2.603-4.811.459-6.956-2.218-2.217-6.05-1.95-7.797.544m132.348-.077c-2.541 4.747 3.135 9.978 7.016 6.466 2.243-2.03 2.623-5.485.804-7.304-1.951-1.951-6.594-1.454-7.82.838m-161.423 1.185c-3.332 4.756-.67 10.788 4.75 10.762 5.175-.025 8.292-3.751 7.102-8.491-1.209-4.818-9.02-6.315-11.852-2.271m189.232-.522C342.465 77.536 345.16 84 351.5 84c5.93 0 9.079-5.4 5.756-9.87-2.474-3.328-8.083-4.094-10.467-1.429m18.109 7.582c-10.992 7.384-4.878 24.685 8.29 23.459 6.37-.593 15.041 7.264 12.989 11.769-5.863 12.869 6.688 28.34 20.089 24.763l4.096-1.093 6.198 5.952c6.197 5.95 6.197 5.951 6.069 11.494l-.129 5.543-8.687 7.943-8.688 7.943 1.688 2.966c2.193 3.854 1.453 4.182 11.431-5.068l8.679-8.045 2.989 1.545c8.941 4.624 19.088-2.299 19.088-13.022 0-9.094-11.053-15.685-19.09-11.384-1.656.887-2.861.238-7.801-4.198l-5.842-5.246 2.448-4.552c7.943-14.77-8.62-32.344-23.331-24.754-2.814 1.452-3 1.383-7.624-2.808l-4.739-4.296 1.546-3.701c4.927-11.791-8.873-22.463-19.669-15.21M137.408 88.5c-1.517 2.316-1.517 2.684 0 5 2.816 4.298 9.592 2.648 9.592-2.335 0-5.523-6.53-7.338-9.592-2.665m231.163-.929c-3.11 3.111-.521 8.429 4.103 8.429 2.309 0 5.326-2.931 5.326-5.174 0-3.994-6.459-6.224-9.429-3.255m-263.648 27.352c-5.704 5.704-3.215 15.505 4.593 18.082 9.35 3.086 17.817-6.618 13.367-15.321-3.302-6.456-12.804-7.917-17.96-2.761m292.318-1.598c-7.907 4.392-7.188 15.348 1.273 19.383 7.137 3.403 15.473-2.282 15.482-10.558.009-7.426-9.888-12.638-16.755-8.825m-75.267 9.123c-.811 1.679-2.992 3.81-4.848 4.737l-3.375 1.684 3.657 1.528c2.33.974 4.115 2.617 4.919 4.529l1.262 3.002 1.125-2.982c.746-1.975 2.375-3.503 4.83-4.529l3.705-1.548-3.375-1.684c-1.856-.927-4.061-3.058-4.9-4.737l-1.526-3.051-1.474 3.051m-132.692.615a7.261 7.261 0 0 1-4.219 4.219c-3.826 1.445-3.834 1.988-.049 3.417 1.892.714 3.545 2.378 4.44 4.469l1.427 3.332 1.13-3.171c.783-2.198 2.217-3.605 4.673-4.584l3.543-1.414-3.629-2.141c-1.996-1.177-4.061-3.277-4.589-4.665-1.213-3.191-1.328-3.169-2.727.538m116.311 16.421c-.376 1.5-2.063 3.222-4.259 4.349l-3.637 1.866 3.229 1.125c2.143.747 3.613 2.144 4.371 4.151 1.351 3.579 2.441 3.882 2.883.802.195-1.353 1.822-3.064 4.158-4.371l3.839-2.149-3.166-1.103c-2.08-.725-3.557-2.141-4.308-4.129-1.387-3.675-2.284-3.831-3.11-.541m-134.054.394c-.333 1.048-1.49 2.138-2.572 2.42-2.477.648-2.777 6.177-.385 7.095 3.982 1.528 10.418-.344 10.418-3.03 0-1.545-2.283-4.363-3.535-4.363-.806 0-1.465-.648-1.465-1.441 0-2.285-1.794-2.782-2.461-.681m41.177 4.814c-.668 3.478-1.051 3.161 5.937 4.914 8.494 2.13 17.347 5.491 17.347 6.585 0 2.216-31.169-2.275-39.266-5.658l-3.566-1.489-.638 3.78c-1.546 9.147 4.315 25.092 11.661 31.73l3.815 3.446h-3.035c-1.669 0-4.666-.681-6.659-1.514-4.582-1.914-6.084-.758-10.315 7.941-4.087 8.402-5.997 16.615-5.997 25.783 0 9.438.653 9.634 4.371 1.309 3.634-8.137 7.544-12.365 5.144-5.562-3.287 9.318-1.215 24.29 4.691 33.894 12.787 20.794 42.656 32.274 69.294 26.632 10.358-2.195 11.596-2.012 7.444 1.095-8.083 6.049-10.674 6.837-22.603 6.881l-11.158.041 1.408 3.372c.775 1.855 1.409 3.481 1.409 3.614s6.439.325 14.309.427l14.31.186 19.656-19.996c21.404-21.773 21.815-22.105 27.409-22.099 17.704.017 18.885 26.366 1.287 28.727-3.381.453-5.202 1.846-12.94 9.898-9.33 9.708-9.879 10.058-13.097 8.336-3.371-1.804-1.27-8.933 2.645-8.975.506-.005 3.722-3.109 7.145-6.898l6.224-6.888-1.547-3.102c-.851-1.706-1.857-3.102-2.236-3.102-.379 0-7.653 6.975-16.165 15.5L273.524 299H236.925l-4.264-4.387c-2.345-2.413-5.365-6.463-6.711-9-1.345-2.537-2.94-4.613-3.543-4.613-.603 0-3.901-1.812-7.328-4.027-5.646-3.649-6.165-3.814-5.527-1.75 1.95 6.303 5.67 11.276 16.362 21.871l11.7 11.593 6.193.562c6.509.59 12.81 3.544 16.895 7.919 4.403 4.717 5.298 8.82 5.298 24.3V356h-19v-4.401c0-3.968.344-4.604 3.491-6.461 12.259-7.233 8.637-25.555-5.318-26.895-16.147-1.552-22.653 18.641-8.664 26.895 3.147 1.857 3.491 2.493 3.491 6.461V356h-20v-29.844l-4.014-3.436-4.015-3.436-4.392 1.446c-11.689 3.848-21.581-8.838-15.428-19.785 4.928-8.769 15.172-9.897 21.758-2.396 2.966 3.378 3.482 5.344 3.137 11.951-.115 2.214.724 3.854 3.2 6.254l3.356 3.252 3.321-3.426 3.321-3.427-3.872-3.318c-7.622-6.533-10.393-9.69-10.961-12.491-.396-1.954-2.134-3.913-5.556-6.261-10.167-6.977-19.693-21.841-21.39-33.379-.898-6.099-1.341-5.572-2.851 3.393l-1.225 7.268-2.172-3.514c-3.552-5.746-5.541-15.336-4.912-23.677l.552-7.326-4.178.668c-14.587 2.329-30.426 10.144-38.531 19.012-10.564 11.559-13.043 20.943-13.089 49.55l-.033 20.578 12.323 12.922 12.322 12.922-1.83 3c-1.007 1.65-1.84 3.9-1.851 5-.039 3.82-1.098 4.279-7.24 3.138L130 359.57v-15.134l-10.06-9.343-10.059-9.343.213-12.919.213-12.919-3.154-3.254-3.153-3.253v-12.268c0-6.748-.473-13.152-1.05-14.231-.824-1.539-.608-2.525 1-4.569 6.797-8.642-2.359-22.984-13.357-20.92C75.458 244.256 76.419 268 91.668 268c4.905 0 5.332 1.242 5.332 15.513v13.113l3 2.874 3 2.874v26.164l10 9.962 10 9.962V368.969l5.851-.611c9.495-.993 12.082.418 26.226 14.299L167.653 395h177.694l12.576-12.343c14.3-14.034 16.644-15.285 26.717-14.253l6.36.652v-21.594l10-9.962 10-9.962v-24.794l-3.25 2.5c-3.152 2.425-3.265 2.77-3.75 11.487l-.5 8.986-9.75 9.255-9.75 9.256v15.514l-5.012.665c-2.757.366-5.639.906-6.405 1.2-.95.364-1.621-.523-2.108-2.786-.394-1.827-1.362-4.585-2.152-6.131-1.424-2.785-1.363-2.887 6.87-11.558 15.133-15.938 16.513-18.231 17.01-28.276.563-11.379-2.114-11.003-7.016.987-5.182 12.673-21.051 31.079-25.566 29.653-12.091-3.82-22.035-.564-26.899 8.807L330.804 356H310v-13.728l4.177-2.886c7.962-5.5 19.066-21.358 21.307-30.428.563-2.279.132-2.766-4.178-4.718l-4.806-2.176 4.5.628c8.618 1.204 29.362.597 38.5-1.126 19.229-3.625 43.661-16.71 54.89-29.397 5.104-5.767-2.489-34.033-20.85-77.624-14.724-34.954-14.458-34.687-41.024-41.091-25.16-6.066-27.235-5.287-32.357 12.134-2.839 9.656-2.992 10.875-1.743 13.864 1.334 3.194 5.442 5.372 7.609 4.033.512-.317 2.304.438 3.981 1.678 2.534 1.873 3.511 2.08 5.779 1.224 2.213-.835 3.09-.686 4.647.792 4.496 4.268 11.568 1.086 11.568-5.206v-3.913l3.75 2.553c2.913 1.982 4.538 2.427 7.28 1.993l3.53-.559-.397 25.872-.397 25.872 2.291.727c3.569 1.133 12.039 9.551 14.068 13.982 2.95 6.444 2.368 8.481-1.068 3.737-10.635-14.681-38.214-18.598-47.992-6.815-1.731 2.085-3.38 1.992-5.463-.309-8.816-9.742-32.639-10.526-46.365-1.526-4.982 3.266-5.414 3.373-8.075 1.997-3.53-1.826-10.162-9.082-10.162-11.118 0-6.145-16.818 3.976-18.635 11.214-.886 3.531-2.365 2.768-2.365-1.22 0-12.646 17.736-23.646 32.814-20.352 7.695 1.681 9.661 1.732 12.981.336 5.985-2.516 9.047-11.499 5.87-17.221l-1.265-2.278-2.374 2.528c-2.467 2.625-5.448 3.193-8.026 1.527-1.229-.794-1.118-.972.614-.985 8.405-.061 10.325-14.995 2.257-17.556-2.157-.685-3.451-4.279-2.047-5.683.562-.562 4.628-1.076 9.035-1.141 7.635-.113 7.937-.203 6.393-1.909-2.435-2.69-7.897-5.832-12.504-7.192-3.383-.999-4.17-1.71-4.483-4.046-1.365-10.194-16.226-17.1-39.765-18.48-12.434-.729-23.437-3.555-36.622-9.404-1.234-.547-1.752-.047-2.162 2.088m-137.681 9.242c-2.286 4.272.167 9.066 4.639 9.066 2.512 0 5.326-2.998 5.326-5.674 0-4.662-7.854-7.335-9.965-3.392m356.298.681c-1.536 2.344-1.561 2.889-.24 5.25 2.818 5.037 9.907 3.019 9.907-2.82 0-5.497-6.575-7.15-9.667-2.43m-270.583-.035c-.412.414-.76 1.916-.772 3.337-.059 6.933-6.226 14.383-13.033 15.744l-3.223.645 5.114 1.907c5.841 2.179 8.688 5.277 10.267 11.172 1.864 6.962 2.749 8.629 2.829 5.333.166-6.818 5.754-14.799 11.746-16.777l3.349-1.105-5.247-2.668c-5.965-3.033-8.602-6.801-9.61-13.734-.368-2.534-1.008-4.268-1.42-3.854m38.906 8.527c.88 4.497 3.737 10.797 6.301 13.893l2.071 2.5 3.014-3.663c1.657-2.015 5.251-5.1 7.986-6.855 2.734-1.755 4.972-3.332 4.972-3.505 0-.912-13.354-4.553-18.754-5.113l-6.253-.65.663 3.393m50.844 7.822c-8.597 2.074-8.439 3.509.459 4.185 5.634.427 8.606 1.081 8.898 1.957 2.131 6.394 10.495 7.815 16.748 2.845 5.884-4.676 6.974-6.941 2.973-6.176-1.332.255-6.45-.482-11.374-1.638-9.284-2.18-12.617-2.401-17.704-1.173m-118.47 5c-.844 2.036-2.558 3.813-4.451 4.614l-3.079 1.302 2.75 1.052c1.512.579 3.648 2.527 4.746 4.328 1.103 1.809 1.998 2.57 2 1.699.005-1.81 3.565-5.286 6.504-6.35 1.795-.649 1.669-.864-1.223-2.089-2.024-.858-3.716-2.574-4.549-4.617l-1.327-3.251-1.371 3.312m-54.673 1.041c-2.758 1.141-5.357 4.864-5.357 7.676 0 2.878 4.647 8.354 7.089 8.354 1.806 0 1.911.93 1.911 17v17h-8.257l.491-11.25c.556-12.761-.303-15.707-5.167-17.722-6.54-2.709-13.067 1.634-13.067 8.694 0 5.238 3.547 9.278 8.146 9.278H66v18h22v-21.36c0-11.749.275-23.366.611-25.816.959-7.002-5.171-12.37-11.254-9.854M432 176.685c-5.563 2.111-5.719 2.842-5.268 24.592.347 16.694.77 21.314 2.426 26.473l2.005 6.25H448v-18h3.077c8.121 0 11.521-9.602 5.523-15.6-3.737-3.737-6.201-4.175-10.62-1.89-4.529 2.342-4.98 4.115-4.297 16.868l.623 11.622H434v-17c0-16.459.065-17 2.045-17 3.075 0 6.955-4.407 6.955-7.899 0-5.259-6.405-10.159-11-8.416M307.188 193.96c-1.203 1.627-2.188 3.81-2.188 4.85 0 2.726 2.044 8.19 3.063 8.19 2.186 0 4.599-9.227 3.528-13.493-.817-3.256-1.731-3.162-4.403.453M117 195c-4.133 4.133-1.569 10 4.371 10 4.063 0 5.629-1.542 5.629-5.545 0-5.8-5.987-8.468-10-4.455m30.585 6.399c-.848 4.52-4.115 8.502-8.503 10.362l-3.582 1.519 3.224 1.11c4.664 1.606 7.365 4.759 8.797 10.269 1.225 4.716 1.275 4.763 1.92 1.841 1.274-5.766 3.791-9.447 7.686-11.24 4.154-1.913 4.972-3.26 1.979-3.26-2.99 0-7.825-5.242-9.058-9.82-1.363-5.062-1.643-5.151-2.463-.781m191.039 1.733c-.707 3.533-5.958 8.868-8.73 8.868-1.042 0-1.894.45-1.894 1s.865 1 1.923 1c2.939 0 7.847 4.675 8.624 8.215l.694 3.16 2.13-4.437c1.513-3.154 3.256-4.988 6.026-6.34l3.896-1.903-3.601-1.436c-2.695-1.075-4.213-2.663-6.03-6.309l-2.428-4.872-.61 3.054m-276.136 1.253c-2.233 1.633-1.536 5.033 1.11 5.413 2.501.359 4.666-1.947 3.842-4.094-.847-2.207-2.965-2.772-4.952-1.319m384.874 1.115c-.888 2.314.361 4.5 2.571 4.5 2.155 0 4.075-2.724 3.349-4.75-.63-1.756-5.225-1.562-5.92.25M121 220.326c0 1.585-3.73 5.102-6.43 6.063-1.688.6-1.499.902 1.5 2.399 2.273 1.135 3.787 2.816 4.489 4.987l1.058 3.276 1.442-3.276c.878-1.996 2.803-3.915 4.929-4.912l3.487-1.638-3.702-1.546c-2.481-1.037-3.914-2.394-4.346-4.113-.668-2.664-2.427-3.563-2.427-1.24m-62.016 25.541C49.231 251.094 52.675 265 63.723 265c11.575 0 14.412-15.121 3.678-19.606-4.221-1.763-4.245-1.762-8.417.473m386.133.764c-2.956 2.07-5.186 7.337-4.429 10.461C443.532 268.83 461 267.031 461 255c0-8.087-9.294-12.984-15.883-8.369M89.2 251.2c-1.547 1.547-1.547 6.053 0 7.6 3.147 3.147 8.8.706 8.8-3.8 0-3.305-1.695-5-5-5-1.43 0-3.14.54-3.8 1.2m-28 1c-2.844 2.844-.062 7.526 3.752 6.315 1.427-.453 2.048-1.506 2.048-3.475 0-3.658-3.345-5.295-5.8-2.84m386.407 1.382c-.812 2.117-.828 2.054.964 3.847 2.908 2.907 7.296.06 5.392-3.498-1.246-2.329-5.507-2.563-6.356-.349m-302.303 1.374c-12.036 7.339-7.973 24.661 6.058 25.824 2.974.247 6.232-.013 7.239-.577 1.901-1.063 16.882 11.106 18.161 14.752 1.725 4.917 6.572 6.544 9.583 3.216 3.257-3.599 1.545-9.171-2.818-9.171-1.258 0-5.118-3.062-9.811-7.783l-7.737-7.783.565-4.467c1.465-11.585-11.352-20.04-21.24-14.011m167.925 2.713c-1.316.53-4.229 5.493-4.229 7.205 0 .535 1.165 2.357 2.589 4.049 3.265 3.88 7.461 4.118 10.956.622 6.139-6.139-.989-15.226-9.316-11.876m-166.156 4.966c-2.705 3.438-2.625 6.498.241 9.191C152.126 276.346 160 273.35 160 267c0-6.687-8.771-9.649-12.927-4.365m224.427-1.886-23 .289-9.75 9.712c-5.363 5.342-9.75 10.174-9.75 10.738 0 .564-12.375 13.395-27.5 28.512L274 337.486V356H280.707l.654-7.75.655-7.75 26.235-26.25L334.486 288h20.685c23.352 0 25.705-.626 22.794-6.066-.966-1.804-2.293-1.937-19.75-1.973l-18.715-.039 6-5.437 6-5.436 23.715-.025c22.678-.023 23.761-.111 24.785-2.024 1.617-3.021-1.803-7.813-4.832-6.77-.367.127-11.018.36-23.668.519M67.27 269.46c-9.957 4.398-8.488 20.666 1.963 21.737 2.571.263 3.286 1.077 5.433 6.184l2.473 5.88-3.545 2.922c-9.123 7.52-5.474 21.322 6.185 23.401 7.265 1.295 8.222 3.199 8.216 16.34l-.006 11.576 9.193 8.554 9.192 8.554-1.687 4.216c-2.181 5.451-2.186 16.352-.011 22.748 2.132 6.268 11.14 15.571 16.839 17.389 2.192.699 4.66 2.079 5.485 3.068 1.39 1.666 12.726 6.76 79.387 35.676l24.886 10.795 1.676 4.329c8.933 23.067 39.796 21.182 47.355-2.893.282-.899 7.455-4.494 16.843-8.443 36.638-15.41 89.294-38.589 89.904-39.576.359-.58 2.902-2.097 5.653-3.371 14.176-6.568 21.972-25.832 16.053-39.67l-1.55-3.624 8.897-8.855 8.896-8.855v-11.584c0-13.164 1.94-16.958 8.67-16.958 11.02 0 14.95-15.647 5.749-22.885-11.189-8.801-27.075 6.821-17.957 17.658l2.462 2.926-2.962 2.837c-2.933 2.81-2.962 2.947-2.962 13.888v11.05l-10.25 9.618-10.249 9.618 2.499 4.895c6.436 12.603.485 28.944-11.781 32.351-7.961 2.211-17.526-.704-22.299-6.795l-2.42-3.088-5.75 5.046c-4.533 3.978-5.75 5.664-5.75 7.964 0 3.893 4.206 4.052 8.116.306l2.726-2.612 3.359 2.563c1.847 1.409 4.47 2.987 5.829 3.507 3.084 1.18 6.367-.337-76.03 35.148l-15.5 6.676-1.885-5.01-1.885-5.01 17.635-17.424C311.338 415.458 312 414.655 312 410.825c0-8.863-10.036-12.88-15.75-6.303-2.879 3.313-3.01 9.041-.273 11.953l1.976 2.104-11.476 11.444L275 441.467v-11.233c0-9.065.276-11.234 1.427-11.234 4.988 0 7.163-10.04 3.179-14.672-7.732-8.988-20.96 3.596-13.606 12.945 1.807 2.298 2 4.057 2 18.267 0 13.743.241 16.117 1.916 18.842 8.3 13.507-3.466 29.778-18.588 25.706-10.472-2.819-14.661-14.841-8.987-25.788 1.339-2.584 1.659-6.233 1.659-18.936 0-14.894.119-15.862 2.227-18.106 3.532-3.759 3.08-9.701-1.016-13.36-9.443-8.438-20.932 4.97-11.711 13.667l3.5 3.301V441.489l-11.069-11.07-11.07-11.069 2.154-3.651c4.935-8.365-3.418-17.644-11.924-13.246-5.841 3.02-6.625 12.794-1.302 16.23 1.491.963 9.177 8.36 17.08 16.439l14.369 14.689-1.755 4.594c-.965 2.527-1.854 4.595-1.975 4.595s-12.322-5.201-27.114-11.557a73191.377 73191.377 0 0 0-45.644-19.595c-18.618-7.982-20.523-9.151-16.826-10.324 1.059-.336 3.62-1.761 5.691-3.167 3.134-2.127 3.944-2.321 4.826-1.16 4.105 5.407 8.592 5.966 8.451 1.053-.092-3.202-.893-4.464-5.483-8.635l-5.375-4.884-4.143 4.143c-8.397 8.397-20.802 8.936-28.874 1.256-7.324-6.967-8.791-21.022-3.037-29.102 2.658-3.733 2.577-4.24-1.109-6.965-1.72-1.272-6.445-5.464-10.5-9.315L95 353.746v-11.199c0-10.581-.135-11.325-2.442-13.492l-2.441-2.294 2.108-2.852c4.584-6.2 2.028-15.441-5.296-19.142-5.468-2.763-9.883-14.9-6.455-17.745 2.309-1.916 2.872-7.257 1.19-11.283-2.523-6.04-8.768-8.764-14.394-6.279m374.98.202c-.687.278-1.257 1.48-1.265 2.671-.02 2.767-.907 4.063-3.842 5.61-2.781 1.465-2.419 6.028.756 9.509 1.519 1.666 1.773 3.113 1.363 7.762-.727 8.248-.049 9.482 3.734 6.789 2.42-1.723 3.004-2.865 3.004-5.87 0-3.37.345-3.856 3.569-5.022 9.739-3.521 9.558-16.582-.287-20.749-3.328-1.409-4.89-1.564-7.032-.7m-374.239 7.825c-1.531 1.845-.577 6.082 1.553 6.899 1.95.749 4.991-.784 5.815-2.931 1.595-4.156-4.492-7.434-7.368-3.968m374.534 1.372c-1.278 4.026 1.958 7.012 5.527 5.102 2.175-1.163 2.528-3.961.728-5.761-1.845-1.845-5.586-1.451-6.255.659m-301.045 9.5c-11.121 5.137-11.827 19.717-1.243 25.665 6.927 3.893 15.959.589 18.868-6.903.912-2.349.997-2.31 6.649 3.004l19.976 18.787L200 342.315V356h8v-16.653l-7.75-7.457c-9.808-9.437-42.636-39.792-45.652-42.213-3.002-2.41-9.35-3.048-13.098-1.318m279.504 7.137c-1.29 1.373-2.042 2.8-1.671 3.171.731.73 5.667-3.487 5.667-4.841 0-1.527-1.635-.844-3.996 1.67m-278.369.577c-3.444 2.709-3.592 7.679-.321 10.753 4.867 4.571 12.086 1.39 12.086-5.326 0-6.675-6.416-9.635-11.765-5.427M199 303c-4.326 4.326-1.024 11 5.443 11 5.898 0 8.727-6.83 4.557-11-1.111-1.111-3.333-2-5-2-1.667 0-3.889.889-5 2m230.008 9.707c-2.468 1.729-2.418 6.022.087 7.589 2.256 1.412 6.655.066 7.394-2.261 1.434-4.519-3.559-8.075-7.481-5.328M77.063 314.25c-1.957 5.046 4.699 8.881 8.371 4.823 1.716-1.897 1.727-2.178.175-4.547-2.211-3.375-7.281-3.538-8.546-.276m193.592-.421c-3.859 4.264-.771 11.171 4.995 11.171 2.224 0 6.35-4.223 6.35-6.5 0-5.059-8.01-8.357-11.345-4.671M160.504 323.98c-.365 1.664-2.091 4.459-3.834 6.209-1.744 1.751-2.998 3.662-2.788 4.247.21.585.678 2.414 1.041 4.064.646 2.942.782 3.002 7.122 3.097 9.04.137 17.98 5.67 19.602 12.132.394 1.569 1.309 2.271 2.961 2.271 2.209 0 2.392-.39 2.392-5.078 0-5.077-.001-5.079-8.25-12.706-4.537-4.195-10.349-9.795-12.915-12.445l-4.666-4.818-.665 3.027M238 327c-4.46 4.46-.847 13 5.5 13 3.748 0 7.5-3.701 7.5-7.398 0-6.519-8.445-10.157-13-5.602m-80.73 23.435c-4.144 1.862-7.261 6.996-7.266 11.964-.004 3.615.777 4.692 10.688 14.75L171.385 388H342.62l10.19-10.355L363 367.29v-5.068c0-12.284-14.532-17.509-22.467-8.079-1.393 1.656-2.533 3.85-2.533 4.877 0 5.07 1.503 4.98-82.747 4.98H176.95l-.959-2.75c-3.497-10.023-10.93-14.317-18.721-10.815m3.73 5.284c-7.78 2.809-6.09 13.614 2.129 13.614 2.419 0 4.099 1.066 7.624 4.834l4.521 4.833h162.301l4.925-5c3.747-3.804 5.651-5.004 7.962-5.015 8.082-.041 9.894-9.938 2.389-13.047-3.846-1.593-8.181 1.237-8.675 5.661-.186 1.666-1.868 4.497-3.953 6.651l-3.629 3.75H177.406l-3.703-3.792c-2.037-2.086-3.703-4.736-3.703-5.889 0-4.077-5.275-7.944-9-6.6m-34.067 24.547c-12.542 8.452-1.342 27.168 12.1 20.217 8.575-4.434 7.517-17.199-1.751-21.121-4.464-1.89-6.462-1.715-10.349.904m247.567-.424c-13.754 8.409-2.692 27.997 11.628 20.592 8.155-4.217 7.144-17.333-1.618-20.994-4.517-1.888-6.389-1.812-10.01.402m-244.833 6.825c-1.755 1.754-.596 6.408 1.875 7.534 3.75 1.709 7.368-1.909 5.659-5.659-1.126-2.471-5.78-3.63-7.534-1.875m246.297 1.4C374.567 390.678 377.083 395 380 395c1.075 0 2.671-1.095 3.548-2.433 2.209-3.371.482-6.567-3.548-6.567-1.938 0-3.304.7-4.036 2.067m-204.488 14.306c-8.879 3.935-6.395 17.627 3.197 17.627 3.164 0 4.567.787 8.796 4.934 3.458 3.392 7.064 5.713 11.531 7.422 3.575 1.368 10.325 4.13 15 6.138 4.675 2.008 9.175 3.907 10 4.222.825.314-.75-1.786-3.5-4.667-3.732-3.909-7.646-6.526-15.433-10.317-12.561-6.115-16.613-10.055-16.201-15.753.511-7.081-6.973-12.45-13.39-9.606m161.861.233c-3.804 1.876-5.791 6.162-4.945 10.668.758 4.042-4.365 9.727-10.892 12.086-6.67 2.411-15.43 6.704-16.238 7.958-.419.65-2.971 2.958-5.671 5.129-5.029 4.044-4.965 5.832.117 3.204 1.563-.808 8.456-3.592 15.317-6.186 11.009-4.162 13.139-5.362 18.126-10.211 3.198-3.11 6.136-5.195 6.769-4.803 3.654 2.258 11.08-3.588 11.08-8.723 0-7.932-6.83-12.492-13.663-9.122M253 430.4v23.4l-3.5 3.5c-5.135 5.135-4.172 12.706 1.972 15.505 10.924 4.978 19.48-7.053 11.028-15.505l-3.5-3.5V407h-6v23.4m-80.362-20.9c-.932 2.43.403 4.5 2.902 4.5 2.377 0 4.178-3.03 2.966-4.991-.96-1.552-5.22-1.195-5.868.491m34.356.007c-1.103 1.329-1.076 1.84.164 3.08 2.021 2.021 5.033.754 4.645-1.954-.377-2.626-3.045-3.251-4.809-1.126m29.702-.157c-.834 2.174 1.692 5.099 3.73 4.317 2.452-.941 1.658-5.084-1.049-5.47-1.167-.166-2.374.352-2.681 1.153m33.666.15c-.793 2.064.282 4.5 1.984 4.5 2.047 0 3.789-2.486 3.064-4.373-.784-2.043-4.279-2.131-5.048-.127m29.997.007c-.353.92.057 2.337.927 3.207 2.124 2.124 4.941.907 4.534-1.96-.394-2.777-4.513-3.717-5.461-1.247m34.231.12c-.776 2.021 1.066 4.373 3.425 4.373 2.015 0 3.201-2.274 2.347-4.5-.771-2.009-4.988-1.917-5.772.127m-81.201 52.803c-.996 2.595.399 4.739 2.857 4.39 1.652-.235 2.254-.987 2.254-2.82 0-2.952-4.098-4.211-5.111-1.57" fill-rule="evenodd"/></svg>